# xmcd
#
# Track frame offsets: 
#        150
#        11360
#        33351
#        40007
#        74388
#        92535
#        114396
#        136718
#        152116
#        180140
#        222794
#        243413
#        262387
#        281108
#
# Disc length: 4142 seconds
#
# Revision: 4
# Processed by: cddbd v1.5.2PL0 Copyright (c) Steve Scherf et al.
# Submitted via: ExactAudioCopy v1.1
#
DISCID=b7102c0e
DTITLE=布拉格愛樂樂團 - 約翰．巴瑞40年電影配樂精選輯
DYEAR=2001
DGENRE=Soundtrack
TTITLE0=The Tamarind Seed - Play it Again (1974)
TTITLE1=King Kong - Prelude and Love Theme (1976)
TTITLE2=Eleanor and Franklin - Main Theme (1976)
TTITLE3=Robin and Marian - Suite (1976)
TTITLE4=The Deep - Main Theme (1977)
TTITLE5=Hanover Street - Main Theme (1979)
TTITLE6=The Black Hole - Overture (1979)
TTITLE7=Moonraker - Miss Goodhead Meets Bond (1979)
TTITLE8=Somewhere in Time - Main Theme (1980)
TTITLE9=Raise The Titanic - Suite (1980)
TTITLE10=Body Heat - Main Theme (1981)
TTITLE11=Frances (1982)
TTITLE12=Octopussy - Palace fight (1983)
TTITLE13=The Cotton Club - Suite (1984)
EXTD=ID3G:  24
EXTT0=
EXTT1=
EXTT2=
EXTT3=
EXTT4=
EXTT5=
EXTT6=
EXTT7=
EXTT8=
EXTT9=
EXTT10=
EXTT11=
EXTT12=
EXTT13=
PLAYORDER=
